<?xml version="1.0" encoding="UTF-8" standalone="no"?>
<!-- Created with Inkscape (http://www.inkscape.org/) -->
<svg xmlns:dc="http://purl.org/dc/elements/1.1/" xmlns:cc="http://creativecommons.org/ns#" xmlns:rdf="http://www.w3.org/1999/02/22-rdf-syntax-ns#" xmlns:svg="http://www.w3.org/2000/svg" xmlns="http://www.w3.org/2000/svg" xmlns:xlink="http://www.w3.org/1999/xlink" version="1.0" width="1000" height="1000" viewBox="0 0 1000 1000" id="Layer_1" xml:space="preserve"><metadata id="metadata34"><rdf:RDF><cc:Work rdf:about=""><dc:format>image/svg+xml</dc:format><dc:type rdf:resource="http://purl.org/dc/dcmitype/StillImage"/><dc:title/></cc:Work></rdf:RDF></metadata><defs id="defs32"/><g transform="matrix(31.265509,0,0,31.265509,41.468982,-0.24485964)" id="PLAY"><defs id="defs4"><path d="m 23.028,11.518 -6.69,-3.862 c 0,0 -12.19,-7.04 -12.908,-7.453 C 2.715,-0.211 2,0.039 2,0.902 c 0,1.44 0,15.029 0,15.029 0,0 0,14.685 0,15.333 0,0.649 0.512,0.93 1.133,0.569 0.624,-0.359 13.205,-7.625 13.205,-7.625 l 6.69,-3.862 c 0,0 5.678,-3.278 6.433,-3.714 0.754,-0.435 0.683,-1.032 0.045,-1.376 -0.638,-0.344 -6.478,-3.738 -6.478,-3.738 z" id="SVGID_1_"/></defs><clipPath id="SVGID_2_"><use id="use8" style="overflow:visible" x="0" y="0" width="32" height="32" xlink:href="#SVGID_1_"/></clipPath><polygon points="2,32.367 18.577,15.932 2,-0.504 2,15.932 " clip-path="url(#SVGID_2_)" id="polygon10" style="fill:#2cafa2"/><polygon points="18.577,15.932 23.028,11.518 16.338,7.655 2,-0.624 2,-0.504 " clip-path="url(#SVGID_2_)" id="polygon12" style="fill:#77e888"/><polygon points="18.577,15.932 2,32.367 2,32.487 16.338,24.209 23.028,20.347 " clip-path="url(#SVGID_2_)" id="polygon14" style="fill:#cc3a72"/><polygon points="23.028,20.347 30.676,15.932 23.028,11.518 18.577,15.932 " clip-path="url(#SVGID_2_)" id="polygon16" style="fill:#ea9053"/></g><g transform="translate(0,968)" id="g18"/><g transform="translate(0,968)" id="g20"/><g transform="translate(0,968)" id="g22"/><g transform="translate(0,968)" id="g24"/><g transform="translate(0,968)" id="g26"/><g transform="translate(0,968)" id="g28"/></svg>