<?xml version="1.0" encoding="UTF-8" standalone="no"?>
<svg
   xmlns:dc="http://purl.org/dc/elements/1.1/"
   xmlns:cc="http://creativecommons.org/ns#"
   xmlns:rdf="http://www.w3.org/1999/02/22-rdf-syntax-ns#"
   xmlns:svg="http://www.w3.org/2000/svg"
   xmlns="http://www.w3.org/2000/svg"
   xmlns:sodipodi="http://sodipodi.sourceforge.net/DTD/sodipodi-0.dtd"
   xmlns:inkscape="http://www.inkscape.org/namespaces/inkscape"
   width="330.51935"
   height="47.040207"
   version="1.1"
   id="svg217"
   sodipodi:docname="linshare-logo-white.svg"
   style="fill:none"
   inkscape:version="0.92.4 (5da689c313, 2019-01-14)">
  <metadata
     id="metadata221">
    <rdf:RDF>
      <cc:Work
         rdf:about="">
        <dc:format>image/svg+xml</dc:format>
        <dc:type
           rdf:resource="http://purl.org/dc/dcmitype/StillImage" />
        <dc:title></dc:title>
      </cc:Work>
    </rdf:RDF>
  </metadata>
  <sodipodi:namedview
     pagecolor="#005bea"
     bordercolor="#666666"
     borderopacity="1"
     objecttolerance="10"
     gridtolerance="10"
     guidetolerance="10"
     inkscape:pageopacity="0"
     inkscape:pageshadow="2"
     inkscape:window-width="1916"
     inkscape:window-height="1037"
     id="namedview219"
     showgrid="false"
     inkscape:zoom="3.3263896"
     inkscape:cx="164.53362"
     inkscape:cy="-13.325942"
     inkscape:window-x="1920"
     inkscape:window-y="41"
     inkscape:window-maximized="0"
     inkscape:current-layer="svg217" />
  <path
     d="m 30.972464,46.343694 c -5.50464,0 -11.010729,0.05875 -16.511016,0 A 14.574091,16.392999 0 0 1 0.43869235,33.823326 C -1.6534766,24.503224 3.9672328,14.969337 12.412806,13.569118 c 0.612272,-0.104442 0.783475,-0.357399 0.882134,-1.011812 a 13.194303,14.84101 0 0 1 25.796648,-1.494873 1.0373793,1.1668486 0 0 0 0.887939,0.966118 c 3.471956,0.92532 5.88477,3.231273 7.273263,6.805258 0.177006,0.455316 0.249551,1.002021 0.59486,1.31046 0.174105,0.156668 0.391738,0.239898 0.615173,0.235002 6.003741,0.594033 10.736513,6.591471 10.53339,13.302075 A 11.52289,12.960995 0 0 1 47.683701,46.32411 C 42.100713,46.4106 36.536589,46.3437 30.972464,46.3437 Z"
     id="path204"
     inkscape:connector-curvature="0"
     style="fill:#ffffff;stroke-width:1.53875685" />
  <path
     d="m 30.289099,19.66937 a 2.4795541,2.7890131 0 0 1 4.265587,1.964875 2.4839067,2.793909 0 0 1 -0.755908,1.982828 l -3.722958,4.187598 a 2.481005,2.790645 0 0 1 -3.508229,0 1.240859,1.3957236 0 0 0 -1.755564,1.973036 4.9620099,5.5812901 0 0 0 7.019357,0 l 3.721508,-4.1876 a 4.9620099,5.5812901 0 0 0 -7.017906,-7.89214 l -1.86148,2.092168 a 1.2413719,1.3963005 0 1 0 1.755565,1.974667 l 1.860028,-2.093799 z m -6.202512,6.978245 a 2.481005,2.790645 0 0 1 3.508228,0 1.2408594,1.3957239 0 1 0 1.755565,-1.973036 4.9634608,5.582922 0 0 0 -7.019358,0 l -3.721507,4.1876 a 4.9624096,5.5817397 0 1 0 7.017906,7.893773 l 1.860028,-2.093801 a 1.240859,1.3957236 0 1 0 -1.754113,-1.974667 l -1.861479,2.0938 a 2.481005,2.790645 0 1 1 -3.508229,-3.94607 z"
     id="path206"
     style="clip-rule:evenodd;fill:url(#prefix__paint0_linear_1002_7628);fill-rule:evenodd;stroke-width:1.53875685"
     inkscape:connector-curvature="0" />
  <path
     d="M 66.208493,0.79452158 V 46.125416 H 98.493617 V 34.854328 H 76.238723 V 0.79452158 Z m 45.153797,0 h -9.60051 V 10.177634 h 9.59936 V 0.79452158 Z m 0,12.55244742 h -9.60051 v 32.78007 h 9.59936 V 13.345346 Z m 4.06228,32.778447 h 9.59936 V 30.650174 c 0,-5.362242 2.79719,-8.894899 7.10241,-8.894899 4.26167,0 6.19827,3.10608 6.19827,8.16339 v 16.206751 h 9.68531 V 25.411202 c 0,-6.337047 -3.18566,-12.797365 -11.27814,-12.797365 h -0.30137 c -6.88698,0 -10.33046,4.692368 -11.49357,6.33867 v -5.605538 h -9.51227 v 32.78007 z m 57.01978,0.793145 c 16.09902,0 18.76786,-7.676796 18.76786,-15.171933 v -0.853157 c 0,-9.01817 -4.86442,-13.160687 -16.9172,-13.465619 l -5.38009,-0.121647 c -6.5432,-0.181661 -7.40378,-1.949612 -7.40378,-3.899224 0,-1.949611 0.55921,-3.899222 8.30791,-3.899222 h 0.6887 c 8.39386,0 9.03901,3.717562 9.25444,5.422255 h 10.41755 v -0.608239 c 0,-6.825262 -3.44349,-14.31877617 -18.59597,-14.31877617 h -2.97023 c -14.59327,0 -17.43401,7.06693537 -17.43401,13.83056217 v 0.548227 c 0,7.068557 3.65892,12.795742 15.62575,13.283957 l 5.50958,0.18166 c 7.40493,0.304932 8.39501,1.949612 8.39501,4.569097 0,2.437826 -0.94768,4.814016 -9.38508,4.814016 h -0.60161 c -8.26551,0 -9.38508,-4.447449 -9.51342,-7.190205 h -10.46109 v 0.671496 c 0,5.96886 1.93775,16.206752 18.72546,16.206752 z m 21.75757,-0.793145 h 9.59936 V 30.650174 c 0,-5.362242 2.79834,-8.894899 7.10241,-8.894899 4.26167,0 6.19827,3.10608 6.19827,8.16339 v 16.206751 h 9.68531 V 25.411202 c 0,-6.337047 -3.27045,-12.797365 -11.27699,-12.797365 h -0.30137 c -6.88812,0 -10.37516,4.75238 -11.40763,6.215399 V 0.79614353 h -9.59936 V 46.127039 Z M 251.1793,31.564967 c 0,3.899222 -3.31514,7.798445 -8.4374,7.798445 -3.2716,0 -4.21813,-1.949612 -4.21813,-3.717561 v -0.06002 c 0,-1.889598 1.03248,-2.497837 3.48704,-3.046064 l 9.16849,-2.011248 z m 0.25784,10.052988 c 0.34492,3.1077 1.80826,4.509084 3.65892,4.509084 h 7.7911 v -8.896521 h -1.24791 c -0.99007,0 -1.2055,-0.669874 -1.2055,-1.644681 V 23.035011 c 0,-4.75238 -0.86059,-10.602834 -14.29076,-10.602834 h -2.36747 c -12.91451,0 -13.81864,6.763626 -13.81864,11.089427 v 0.121647 h 8.91067 c 0.12949,-1.096452 0.34492,-3.655926 6.06993,-3.655926 h 0.21544 c 5.63906,0 6.02638,1.46302 6.02638,2.681122 0,1.036439 -0.38732,1.524654 -1.46333,1.706315 l -10.58944,1.401384 c -6.93052,0.913171 -9.72885,3.777575 -9.72885,9.809691 v 0.426579 c 0,5.605539 2.97022,10.722863 10.76132,10.722863 h 0.56036 c 6.80103,0 9.7277,-3.350995 10.71778,-5.117324 z m 23.32289,-12.429178 c 0,-4.204153 1.76471,-7.921714 4.99277,-7.921714 h 0.0435 c 3.61538,0 4.90683,3.655926 4.90683,7.860079 h 9.25559 v -1.89122 c 0,-8.468321 -2.7124,-14.622085 -9.42748,-14.622085 h -0.47327 c -5.76855,0 -8.56574,4.690745 -9.38393,6.520331 v -5.790443 h -9.51342 v 32.780069 h 9.59937 z m 38.32641,-9.139817 c 4.86442,0 7.1024,2.07126 7.74756,5.543904 h -15.49627 c 0.73224,-3.472644 2.88428,-5.543904 7.70516,-5.543904 z m 17.30452,14.500437 h -9.46987 c -0.12949,0.793144 -1.16311,4.204153 -7.53328,4.204153 h -0.0435 c -5.29415,0 -7.61922,-2.559473 -8.17843,-6.39706 h 25.35346 v -2.254543 c 0,-7.981727 -2.49581,-17.66977 -16.09901,-17.66977 h -2.6253 c -12.52719,0 -16.05662,8.103375 -16.05662,16.511682 v 1.341372 c 0,8.589967 3.96029,16.754977 16.31445,16.754977 h 2.45341 c 13.81864,0 15.88473,-7.981727 15.88473,-12.429176 z"
     id="path208"
     inkscape:connector-curvature="0"
     style="fill:#ffffff;stroke-width:1.36332285" />
  <defs
     id="defs215">
    <linearGradient
       id="prefix__paint0_linear_1002_7628"
       x1="25.011"
       y1="13.698"
       x2="10.299"
       y2="20.073999"
       gradientUnits="userSpaceOnUse"
       gradientTransform="matrix(1.4508801,0,0,1.6319561,5.2656939e-4,0.00429842)">
      <stop
         stop-color="#01B6F9"
         id="stop210" />
      <stop
         offset="1"
         stop-color="#016DED"
         id="stop212" />
    </linearGradient>
  </defs>
</svg>
