<svg width="164" height="164" viewBox="0 0 164 164" fill="none" xmlns="http://www.w3.org/2000/svg">
<circle cx="82" cy="82" r="82" fill="#DADADA"/>
<path d="M49.5717 70.8534H56.665V69.84C56.665 65.5334 56.665 61.2267 56.9184 56.6667C57.1717 50.84 59.4517 46.0267 63.2517 41.4667C67.0517 36.9067 71.865 33.8667 77.6917 32.6C85.7984 31.08 93.3984 32.6 100.238 37.6667C106.065 41.9734 109.612 48.0534 110.625 55.1467C110.878 56.6667 110.878 58.44 110.878 59.96V70.8534H117.972V71.6134C117.972 85.2934 118.225 98.9733 117.972 112.653C117.972 121.267 111.892 129.373 103.532 131.4C102.265 131.653 100.998 131.907 99.4784 131.907H68.065C61.985 131.907 57.1717 129.12 53.3717 124.053C50.585 120.253 49.3184 115.947 49.3184 111.387V71.8667C49.5717 71.6134 49.5717 71.36 49.5717 70.8534ZM64.7717 70.8534H103.025V70.3467C102.772 65.5334 102.772 60.9734 102.518 56.16C102.518 55.4 102.518 54.64 102.265 54.1334C101.505 51.0934 100.238 48.56 98.2117 46.5334C93.3984 41.4667 87.5717 39.44 80.7317 40.4534C76.6784 40.96 73.385 42.9867 70.5984 45.7734C66.7984 49.5734 64.5184 54.3867 64.5184 59.96C64.5184 61.7334 64.7717 63.2534 64.7717 65.0267V70.8534V70.8534ZM91.8784 117.467V116.96C91.1184 111.387 90.105 106.067 89.345 100.493C89.345 99.9867 89.345 99.7334 89.8517 99.48C91.625 97.4534 92.6384 95.1734 92.1317 92.64C91.625 89.3467 89.8517 87.32 86.8117 86.0534C83.7717 85.04 80.7317 85.5467 78.4517 87.8267C75.1584 91.12 75.1584 96.1867 78.4517 99.2267C78.705 99.48 78.9584 99.7334 78.9584 99.9867C78.1984 104.547 77.4384 108.853 76.9317 113.413C76.6784 114.68 76.425 115.947 76.425 117.467H91.8784V117.467Z" fill="white"/>
</svg>
