<svg width="36" height="36" viewBox="0 0 36 36" fill="none" xmlns="http://www.w3.org/2000/svg">
<g clip-path="url(#clip0)">
<path d="M30.5003 3.10004H5.50027C4.30027 3.10004 3.40027 4.10004 3.50027 5.20004L4.40027 26C4.40027 27.1 5.30027 27.9 6.40027 27.9H12.3003L17.9003 32.9L23.5003 27.9H29.7003C30.8003 27.9 31.7003 27.1 31.7003 26L32.6003 5.10004C32.6003 4.00004 31.7003 3.10004 30.5003 3.10004ZM20.4003 7.00004C20.6003 7.10004 20.7003 7.20004 20.8003 7.30004L25.0003 11.5C25.1003 11.6 25.2003 11.7 25.3003 11.9H20.5003V7.00004H20.4003ZM25.2003 22.9C25.2003 23.1 25.2003 23.3 25.0003 23.5C24.9003 23.6 24.6003 23.7 24.4003 23.7H11.8003C11.6003 23.7 11.4003 23.7 11.2003 23.5C11.1003 23.4 11.0003 23.1 11.0003 22.9V7.90004C11.0003 7.70004 11.0003 7.50004 11.2003 7.30004C11.2003 7.10004 11.5003 7.00004 11.7003 7.00004H19.2003V12.1C19.2003 12.3 19.2003 12.5 19.4003 12.7C19.5003 12.8 19.8003 12.9 20.0003 12.9H25.1003V19.2L25.2003 22.9Z" fill="#7E7E7E"/>
</g>
<defs>
<clipPath id="clip0">
<rect width="36" height="36" fill="white"/>
</clipPath>
</defs>
</svg>
