<?xml version="1.0" encoding="utf-8"?>
<!-- Generator: Adobe Illustrator 19.0.0, SVG Export Plug-In . SVG Version: 6.00 Build 0)  -->
<svg version="1.1" id="Calque_2" xmlns="http://www.w3.org/2000/svg" xmlns:xlink="http://www.w3.org/1999/xlink" x="0px" y="0px"
	 viewBox="0 0 32 32" style="enable-background:new 0 0 32 32;" xml:space="preserve">
<style type="text/css">
	.st0{fill:#ffffff;}
</style>
<path id="XMLID_6_" class="st0" d="M29.4,9.4c-0.3,0-0.7,0-1,0c-0.5,0-0.5,0-0.7-0.5c-0.3-0.7-0.9-1.1-1.7-1.1c-0.2,0-0.4,0-0.6,0
	c-0.8,0-0.8,0-0.8-0.8c0-0.3,0-0.7,0-1c-0.2-0.8-1-1.4-1.8-1.4c-6.4,0-12.8,0-19.1,0c-0.1,0-0.2,0-0.2,0C3,4.7,2.6,4.9,2.3,5.4
	C2.1,5.6,2.2,5.8,2.1,6c0,6.7,0,13.3,0,20c0,0,0,0.1,0,0.1c0.1,0.7,0.7,1.2,1.5,1.2c3.5,0,7,0,10.5,0c0.4,0,0.5,0,0.5-0.5
	c0-1.1,0-2.1,0-3.2c0-0.6,0-1.3,0-1.9c0-0.3-0.1-0.4-0.4-0.4c-0.4,0-0.9,0-1.3,0c-0.2,0-0.4,0-0.6-0.1c-0.5-0.1-0.6-0.6-0.3-1
	c0.1-0.1,0.2-0.2,0.3-0.3c1.7-1.7,3.4-3.4,5.1-5.1c0.1-0.1,0.2-0.2,0.3-0.3c0.3-0.2,0.5-0.2,0.8,0c0.1,0.1,0.2,0.2,0.3,0.3
	c1.7,1.7,3.4,3.4,5.2,5.2c0.1,0.1,0.2,0.2,0.3,0.3c0.3,0.4,0.1,0.8-0.4,1c-0.2,0.1-0.3,0.1-0.5,0.1c-0.5,0-0.9,0-1.4,0
	c-0.4,0-0.4,0.1-0.4,0.4c0,1.7,0,3.4,0,5.2c0,0.3,0.1,0.4,0.4,0.4c1.4,0,2.8,0,4.3,0c0.6,0,1.1-0.3,1.4-0.9c0.2-0.3,0.2-0.6,0.3-0.9
	c0.8-3.5,1.6-7,2.3-10.5c0.3-1.2,0.6-2.4,0.7-3.7C31.1,10.3,30.5,9.6,29.4,9.4z M22.7,8c-0.4,0-0.8,0-1.3,0c-0.8,0-1.4,0.5-1.6,1.3
	c-0.1,0.3-0.2,0.3-0.4,0.3c-3,0-6,0-8.9,0c-1.1,0-1.7,0.5-1.9,1.6c-0.7,3-1.3,6-2,9c-0.4,1.8-0.8,3.5-1.2,5.3c0,0.2-0.1,0.3-0.3,0.3
	c-0.3,0-0.6,0-1,0c-0.3,0-0.4-0.1-0.4-0.4c0-1,0-2.1,0-3.1c0-2.1,0-4.1,0-6.2c0-3.1,0-6.1,0-9.2c0-0.5,0-0.5,0.5-0.5
	c6.1,0,12.3,0,18.4,0c0.4,0,0.4,0,0.4,0.4c0,0.3,0,0.6,0,0.9C23,7.9,22.9,8,22.7,8z"/>
</svg>
